<!-- Generated by IcoMoon.io -->
<svg version="1.1" xmlns="http://www.w3.org/2000/svg" width="19" height="32" viewBox="0 0 19 32">
<path fill="#757575" d="M16 1.862h-13.176c-1.557 0-2.824 1.266-2.824 2.823v24.462c0 1.556 1.267 2.822 2.824 2.822h13.176c1.557 0 2.824-1.266 2.824-2.822v-24.462c0-1.556-1.267-2.823-2.824-2.823zM2.824 3.743h13.176c0.519 0 0.941 0.422 0.941 0.941v19.758h-15.059v-19.758c0-0.519 0.422-0.941 0.941-0.941zM16 30.087h-13.176c-0.519 0-0.941-0.422-0.941-0.941v-2.823h15.059v2.823c0 0.519-0.422 0.941-0.941 0.941z"></path>
<path fill="#757575" d="M4.43 27.714c0.368 0.343 0.368 0.9 0 1.243s-0.963 0.343-1.331 0c-0.368-0.343-0.368-0.9 0-1.243s0.963-0.343 1.331 0z"></path>
</svg>
